HIERARCHY
ROOT Hips
{
  OFFSET 134.936 88.2952 600.33
  CHANNELS 6 Xposition Yposition Zposition Zrotation Xrotation Yrotation
  JOINT RightUpLeg
  {
    OFFSET -8.9458 -8.66707 0.101652
    CHANNELS 3 Zrotation Xrotation Yrotation
    JOINT RightLeg
    {
      OFFSET 0 -44.4227 1.3727
      CHANNELS 3 Zrotation Xrotation Yrotation
      JOINT RightFoot
      {
        OFFSET 0.253549 -42.0924 -1.46059
        CHANNELS 3 Zrotation Xrotation Yrotation
        JOINT RightToes
        {
          OFFSET 0.04 -4.41509 8.4991
          CHANNELS 3 Zrotation Xrotation Yrotation
          End Site
          {
            OFFSET -0.08 -0.137448 9.77979
          }
        }
      }
    }
  }
  JOINT Spine
  {
    OFFSET 0 11.8905 0
    CHANNELS 3 Zrotation Xrotation Yrotation
    JOINT Spine1
    {
      OFFSET 0 25.6574 0.127663
      CHANNELS 3 Zrotation Xrotation Yrotation
      JOINT HEad
      {
        OFFSET 0 8.73416 0.011341
        CHANNELS 3 Zrotation Xrotation Yrotation
        End Site
        {
          OFFSET -0.29 12.7742 2.51395
        }
      }
      JOINT LeftShoulder1
      {
        OFFSET 8.99 -0.362252 -0.22
        CHANNELS 3 Zrotation Xrotation Yrotation
        JOINT LeftArm
        {
          OFFSET 10.2827 -0.00338 0.322123
          CHANNELS 3 Zrotation Xrotation Yrotation
          JOINT LeftForeArm
          {
            OFFSET 32.7669 0.099144 -1.42434
            CHANNELS 3 Zrotation Xrotation Yrotation
            JOINT LeftHand
            {
              OFFSET 27.5643 0.085362 1.02216
              CHANNELS 3 Zrotation Xrotation Yrotation
              End Site
              {
                OFFSET 16.7443 -0.6 1.50291
              }
            }
          }
        }
      }
      JOINT RightShoulder
      {
        OFFSET -8.99 -0.362252 -0.22
        CHANNELS 3 Zrotation Xrotation Yrotation
        JOINT RightArm
        {
          OFFSET -10.2827 -0.00338 0.322123
          CHANNELS 3 Zrotation Xrotation Yrotation
          JOINT RightForeArm
          {
            OFFSET -32.8971 0.099144 -1.42434
            CHANNELS 3 Zrotation Xrotation Yrotation
            JOINT RightHand
            {
              OFFSET -27.4921 0.085362 1.02216
              CHANNELS 3 Zrotation Xrotation Yrotation
              End Site
              {
                OFFSET -16.6312 -0.6 1.50291
              }
            }
          }
        }
      }
    }
  }
  JOINT LeftUpLeg
  {
    OFFSET 8.9458 -8.66707 0.101652
    CHANNELS 3 Zrotation Xrotation Yrotation
    JOINT LeftLeg
    {
      OFFSET 0 -44.4227 1.3727
      CHANNELS 3 Zrotation Xrotation Yrotation
      JOINT LeftFoot
      {
        OFFSET -0.253549 -42.0924 -1.46059
        CHANNELS 3 Zrotation Xrotation Yrotation
        JOINT LeftToes
        {
          OFFSET -0.04 -4.41509 8.4991
          CHANNELS 3 Zrotation Xrotation Yrotation
          End Site
          {
            OFFSET 0.08 -0.047448 9.77979
          }
        }
      }
    }
  }
}
MOTION
Frames:	17
Frame Time:	0.0166667
123.37 95.0381 630.212 15.4576 0.805354 96.5141 -26.6806 2.54613 18.206 33.4212 30.0353 -35.3224 -19.3451 0.136483 -1.2731 0.0462048 0.000533403 0.662642 -2.02836 22.9141 -1.18438 -0.0099571 0.0245677 0.0218559 -5.64318 11.6107 15.2823 7.95139e-016 -1.19271e-015 7.95139e-016 -179.263 -60.0155 -148.825 -103.508 60.1877 -15.5495 18.3871 17.3155 -14.7572 14.0099 9.77385 1.40217 103.713 -13.9906 75.0425 40.4412 54.83 87.946 16.4123 19.0951 -0.186042 23.3564 -7.2593 -1.23088 -34.898 14.5905 60.5502 2.44611 -2.90435 0.00492374 -1.18447e-009 1.5602e-007 -4.87132e-009 
123.522 95.5764 629.809 15.1149 0.983725 96.635 -26.2747 3.3068 17.4294 30.5549 29.3375 -32.6197 -13.4334 -0.306632 -1.07012 0.0462048 0.000533403 0.662642 -2.73449 23.0857 -0.566817 -0.00994775 0.00163992 0.000770392 -6.38005 11.3744 15.4606 -7.95139e-016 3.97569e-016 -7.95139e-016 179.074 -57.462 -152.089 -105.28 59.0422 -16.4775 16.5215 17.6257 -11.9592 13.6145 10.6021 3.59611 103.246 -14.9623 78.0411 42.4807 55.6651 85.8615 13.1151 19.5913 -0.415192 22.9957 -7.28913 -1.97804 -35.0376 14.1122 60.1781 2.40707 -2.76208 0.0477483 -1.18446e-009 1.5602e-007 -4.87132e-009 
123.658 96.0336 629.533 14.7292 1.12264 96.7446 -25.7536 3.96796 16.3739 27.2798 28.647 -29.4758 -5.19505 -0.783649 -0.785647 0.0462048 0.000533403 0.662642 -3.37511 23.2285 0.0551567 -0.00994772 1.00024e-005 4.99991e-005 -7.34199 11.2015 16.1037 -1.59028e-015 -1.04362e-015 7.95139e-016 178.079 -54.8683 -154.574 -105.912 58.5195 -19.5126 13.9189 17.5585 -7.77558 13.4882 11.062 5.15561 102.324 -16.0094 80.3546 46.096 57.6428 82.4676 8.53764 20.6476 -0.233197 22.6735 -7.5217 -2.62795 -34.968 14.064 59.1624 2.02075 -2.66756 0.0663911 -1.18446e-009 1.5602e-007 -4.87131e-009 
123.837 96.4426 629.444 14.2038 1.17513 96.8262 -23.7517 3.8955 13.9265 23.6103 29.5429 -26.2718 -7.10381 -0.740415 -0.701893 0.0462048 0.000533403 0.662642 -3.78122 23.2549 0.6802 -0.00994773 -0.000691222 -0.00035258 -8.96958 11.2666 18.304 2.38542e-015 1.49089e-015 1.59028e-015 177.653 -52.6951 -156.19 -106.663 57.8021 -21.3083 11.8017 17.4196 -4.97221 13.6926 10.5408 5.59563 101.055 -16.564 81.3767 49.0111 58.8604 79.7097 5.33407 21.3192 -1.29963 22.4307 -8.24444 -2.9798 -34.1928 15.4738 56.0562 0.403505 -2.76299 0.00826043 -1.18447e-009 1.5602e-007 -4.8713e-009 
124.079 96.8517 629.564 13.5896 1.14776 96.8746 -21.6181 2.89868 10.7266 19.5322 33.716 -23.0984 -3.73498 -0.573791 -0.497731 0.0462048 0.000533403 0.662642 -3.96774 23.177 1.29811 -0.00994774 -0.00131668 -0.000779065 -10.5734 11.2739 20.344 -1.51728e-032 1.09332e-015 7.95139e-016 177.368 -50.9902 -157.387 -107.516 56.9955 -22.4084 10.5669 17.3442 -3.17791 13.8447 9.93093 5.85572 99.9906 -17.08 82.1135 51.2142 59.8628 77.4097 2.85035 21.5084 -1.12505 22.2344 -9.40561 -3.07967 -32.7345 17.8948 51.2213 -2.1185 -3.02908 -0.151101 -1.18446e-009 1.5602e-007 -4.87132e-009 
124.367 97.2525 629.876 12.9317 1.06049 96.8946 -19.6025 1.46579 7.73969 15.3373 39.1592 -20.5389 -2.27532 -0.192272 -0.402099 0.0462048 0.000533403 0.662642 -3.96645 23.0061 1.89331 -0.00994776 -0.00186847 -0.00122484 -12.1299 11.2647 22.2161 7.95139e-016 -3.97569e-016 -2.38542e-015 176.964 -49.7641 -158.406 -108.511 56.2004 -23.1449 9.48226 17.3521 -1.94564 13.9806 9.27602 5.92753 99.0388 -17.4485 82.5192 52.7847 60.9164 75.4468 0.712148 21.5069 -1.48987 21.9383 -10.8977 -2.99825 -30.3485 20.9009 44.8228 -5.34657 -3.37091 -0.39048 -1.18446e-009 1.5602e-007 -4.87132e-009 
124.625 97.7227 630.376 12.2596 0.927903 96.8919 -17.9311 -0.233674 5.08395 10.6943 43.4298 -17.6064 0.00802673 0.0359771 -0.264606 0.0462048 0.000533403 0.662642 -3.80803 22.7437 2.45359 -0.00994779 -0.00234865 -0.00168529 -13.6084 11.276 23.9239 -1.65521e-032 -5.96354e-016 -1.59028e-015 176.313 -49.0036 -159.405 -109.618 55.467 -23.7314 8.84331 17.4818 -1.09251 14.0686 8.61276 5.86048 98.192 -17.6538 82.6184 53.8633 62.102 73.702 -1.16493 21.2484 -1.06599 21.3693 -12.5477 -2.82128 -26.6316 23.9732 36.8675 -9.19343 -3.6121 -0.656995 -1.18447e-009 1.5602e-007 -4.87131e-009 
124.821 98.1804 631.07 11.5889 0.755825 96.8693 -16.4896 -2.08528 2.71463 5.77865 46.9903 -14.3751 1.58282 0.191534 -0.16879 0.0462048 0.000533403 0.662642 -3.51888 22.3874 2.97497 -0.00994783 -0.00275932 -0.0021558 -14.9797 11.3322 25.4724 0 8.94531e-016 -0 175.376 -48.6685 -160.479 -110.794 54.8226 -24.2749 8.23239 17.6801 -0.445578 14.0733 7.9738 5.71899 97.4616 -17.7107 82.4887 54.5896 63.3935 72.0831 -2.87904 20.9015 -0.875879 20.5112 -14.2312 -2.62138 -21.4661 26.6989 27.5093 -13.6726 -3.74015 -0.95359 -1.18447e-009 1.5602e-007 -4.87132e-009 
124.91 98.581 631.958 10.9232 0.547664 96.829 -15.35 -3.97163 0.649462 0.644994 49.9963 -10.8532 3.36408 0.303348 -0.0566874 0.0462048 0.000533403 0.662642 -3.12706 21.9364 3.45969 -0.00994787 -0.00310256 -0.00263176 -16.2157 11.4442 26.863 7.95139e-016 2.08724e-015 1.59028e-015 174.171 -48.6993 -161.679 -111.966 54.2733 -24.8325 7.85318 17.9354 0.0487438 13.9743 7.38942 5.57242 96.8582 -17.6442 82.2322 55.0772 64.717 70.502 -4.37867 20.42 -0.238657 19.3439 -15.8187 -2.46741 -14.7566 28.619 17.083 -18.9071 -3.71306 -1.27932 -1.18447e-009 1.5602e-007 -4.8713e-009 
124.848 98.8966 632.98 10.2587 0.313664 96.7751 -14.5297 -5.80346 -1.12637 -4.55114 52.5003 -7.11011 5.09244 0.41425 0.0454632 0.0462048 0.000533403 0.662642 -2.66829 21.3958 3.91317 -0.00994791 -0.00338044 -0.00310854 -17.2919 11.6117 28.0921 7.95139e-016 1.19271e-015 1.59028e-015 172.753 -49.0326 -163.002 -113.069 53.8255 -25.4162 7.47424 18.1757 0.452811 13.7565 6.88677 5.47668 96.3935 -17.4651 81.9586 55.4174 65.9811 68.8781 -5.69301 19.8981 0.265498 18.087 -17.2417 -2.3572 -9.06022 29.3923 8.32789 -23.0259 -3.39172 -1.48205 -1.18447e-009 1.5602e-007 -4.87131e-009 
124.592 99.3703 634.196 9.59034 0.0936249 96.7063 -13.9777 -7.30521 -2.66402 -9.50569 53.975 -3.43272 6.74631 0.801976 0.122653 0.0462048 0.000533403 0.662642 -2.20884 20.782 4.34876 -0.00994795 -0.00359506 -0.00358154 -18.1907 11.8276 29.1535 -7.44847e-032 -2.68359e-015 -1.59028e-015 171.194 -49.615 -164.403 -114.05 53.4886 -26.0146 7.24052 18.3685 0.770695 13.415 6.49137 5.43529 96.0627 -17.1591 81.7479 55.7094 67.1353 67.2116 -6.76053 19.3133 1.03802 15.6381 -19.4632 -2.29869 -4.39224 31.865 3.22435 -5.78742 -3.43652 -0.179628 -1.18447e-009 1.5602e-007 -4.87132e-009 
124.228 99.5292 635.44 8.9205 -0.0941862 96.6209 -13.8402 -8.82042 -3.90973 -14.2423 55.4477 0.350408 8.61127 0.845077 0.205648 0.0462048 0.000533403 0.662642 -1.78296 20.1229 4.78238 -0.00994799 -0.0037485 -0.00404615 -18.9119 12.0803 30.0363 -0 -4.96962e-016 -0 169.548 -50.4102 -165.815 -114.88 53.2646 -26.6111 7.02342 18.4667 1.00706 12.7722 6.19394 5.48717 95.922 -17.2175 82.009 56.1625 67.0269 66.1118 -8.36007 19.4196 1.63319 13.1272 -20.5839 -2.32363 -0.298627 32.602 -0.878749 11.9447 -3.22662 0.777598 -1.18446e-009 1.5602e-007 -4.87131e-009 
123.777 99.5888 636.782 8.25362 -0.196395 96.5188 -13.7928 -9.96461 -4.90058 -16.1371 55.826 1.90279 9.41268 0.797269 0.232679 0.0462048 0.000533403 0.662642 -1.46428 19.4464 5.22781 -0.00994803 -0.00384283 -0.00449773 -19.4493 12.3606 30.7371 -3.5863e-032 -1.2921e-015 -1.59028e-015 167.879 -51.3978 -167.155 -115.56 53.159 -27.1797 6.91678 18.4699 1.13962 12.0733 6.02789 5.59021 95.7458 -17.4975 82.5529 56.8417 66.371 65.2043 -7.73194 19.0659 1.60936 14.0281 -22.0251 -2.02838 3.89838 34.9948 -0.526253 -10.7624 -2.93487 -0.815412 -1.18447e-009 1.5602e-007 -4.87131e-009 
123.332 99.4228 638.148 7.60937 -0.168305 96.4074 -14.3763 -10.3092 -4.79542 -13.4701 55.3536 -0.337135 9.32756 0.529242 0.212418 0.0462048 0.000533403 0.662642 -1.30888 18.7853 5.68732 -0.00994806 -0.00388014 -0.00493169 -19.8007 12.6615 31.2568 -2.75869e-032 -9.93923e-016 -1.59028e-015 166.235 -52.5683 -168.357 -116.119 53.1686 -27.6986 6.83554 18.3878 1.16299 11.4195 5.99831 5.70732 95.4628 -17.8528 83.2145 57.5375 65.4218 64.5201 -8.25654 19.0502 1.76983 12.7855 -23.625 -1.83092 7.20942 39.7022 3.58319 -2.25048 -3.50415 0.157888 -1.18447e-009 1.5602e-007 -4.87131e-009 
122.869 99.01 639.455 7.01347 -0.0034953 96.2984 -15.4784 -10.0345 -3.65696 -7.69865 54.151 -5.20502 8.80067 0.132732 0.165399 0.0462048 0.000533403 0.662642 -1.32269 18.1658 6.15133 -0.00994808 -0.00386251 -0.0053434 -19.97 12.9767 31.6037 1.19271e-015 1.49089e-015 -3.18055e-015 164.642 -53.9129 -169.389 -116.583 53.2781 -28.1729 6.82052 18.2674 1.06036 10.9001 6.09398 5.79073 95.0244 -18.1313 83.8241 58.1232 64.4507 64.0085 -7.64016 18.8226 1.62239 13.5626 -25.3314 -1.40837 9.13346 44.6267 7.48356 -17.4383 -1.61558 -1.37954 -1.18447e-009 1.5602e-007 -4.87132e-009 
122.291 98.489 640.825 6.43872 0.232025 96.2172 -16.3438 -9.81186 -2.51044 -2.11019 52.4245 -9.93433 8.0369 -0.164514 0.111464 0.0462048 0.000533403 0.662642 -1.43313 17.5577 6.58691 -0.0099481 -0.00379202 -0.00572826 -19.9647 13.2916 31.7889 -7.44847e-032 -2.68359e-015 -1.59028e-015 162.314 -55.5363 -171.544 -117.28 54.1108 -27.1634 6.79933 17.689 0.885176 10.5577 6.28318 5.80754 94.4304 -18.2512 84.2986 58.5174 63.5283 63.6702 -7.98965 18.8238 1.69947 13.1313 -28.6747 -0.515876 10.8387 49.9509 9.10781 -12.0335 -2.32036 -0.692964 -1.18446e-009 1.5602e-007 -4.87131e-009 
121.667 97.6816 642.128 5.89427 0.473585 96.1762 -17.1675 -9.80021 -1.37815 2.82091 50.8869 -13.9949 7.46862 -0.610238 0.0995807 0.0462048 0.000533403 0.662642 -1.56413 16.9756 6.96816 -0.00994811 -0.00367076 -0.00608163 -19.7968 13.5806 31.8262 3.97569e-016 3.37934e-015 1.59028e-015 159.98 -57.2616 -173.621 -117.954 55.0115 -26.1178 6.79267 17.1368 0.64857 10.4396 6.53006 5.73344 93.6744 -18.1756 84.5925 58.6933 62.7024 63.4913 -7.7518 18.7604 1.62061 14.2271 -32.764 1.13546 12.0573 57.3629 9.25786 -18.7817 -1.07292 -1.1866 -1.18447e-009 1.5602e-007 -4.87131e-009 
